<svg fill="#4d84f2" viewBox="0 0 238.9 43.2" xmlns="http://www.w3.org/2000/svg"><path d="M20.2 34.5c-6.1 0-9.9-5.5-9.9-13s3.2-13 9.8-13c4.4 0 7.2 2.8 7.8 6.5h10.2c-.5-4.6-2.6-8.6-6.1-11.3C29 1.4 25 0 20.2 0 8 0 0 9.2 0 21.5s8.2 21.3 20.3 21.3c5.8 0 10-1.6 13.2-4.7 2.8-2.7 4.7-6.4 4.9-10.5H28.2c-.5 4-3.4 6.9-8 6.9zm39.2-22.9c-4.1 0-6.6 1.7-8.7 4.5h-.2V.8h-9.4v41.1h9.4V25.6c0-3.6 2.1-6.2 5.2-6.2 3 0 4.6 2.1 4.6 5.2v17.2h9.4V22.7c-.1-6.5-3.9-11.1-10.3-11.1zm40.1 25.7V22.5c0-3.7-1.2-6.5-3.7-8.4-2.1-1.6-5.1-2.4-9.5-2.4-8.9 0-13.1 4.7-13.3 10.1h8.6c.3-2.5 1.8-3.8 4.8-3.8 2.8 0 4 1.3 4 3.2 0 2-2 2.6-7.5 3.3-6.1.8-11.3 2.8-11.3 9.2 0 5.8 4.2 9 10 9 4.4 0 7-1.6 8.7-4h.1c.2 1.5.5 2.6 1 3.3h9.1v-.4c-.8-.7-1-2-1-4.3zm-8.9-5.9c0 3.2-2.4 5.3-5.9 5.3-2.3 0-4-.9-4-3.3 0-2.2 1.5-3.2 5.1-4 1.9-.5 3.6-.9 4.8-1.6v3.6zm22.3-14.3h-.2v-4.6h-9v29.4h9.4V28.7c0-6.4 3.7-9.2 9.4-8.4h.2v-8c-.4-.2-1-.2-1.8-.2-3.5-.1-5.9 1.5-8 5zm25.8 18.7c-4 0-6-3.3-6-8.6s2-8.7 6-8.7c2.6 0 4.2 1.7 4.8 4.4h9c-.9-6.6-6-11.3-14-11.3-9.3 0-15.4 6.7-15.4 15.6 0 8.8 6.1 15.6 15.6 15.6 8.3 0 13.7-5.3 14-12.1h-9c-.3 3.4-2.1 5.1-5 5.1zm76.6 1.5V22.5c0-3.7-1.2-6.5-3.7-8.4-2.1-1.6-5.1-2.4-9.5-2.4-8.9 0-13.1 4.7-13.3 10.1h8.6c.3-2.5 1.8-3.8 4.8-3.8 2.8 0 4 1.3 4 3.2 0 2-2 2.6-7.5 3.3-6.1.8-11.3 2.8-11.3 9.2 0 5.8 4.2 9 10 9 4.4 0 7-1.6 8.7-4h.1c.2 1.5.5 2.6 1 3.3h9.1v-.4c-.7-.7-1-2-1-4.3zm-8.9-5.9c0 3.2-2.4 5.3-5.9 5.3-2.3 0-4-.9-4-3.3 0-2.2 1.5-3.2 5.1-4 1.9-.5 3.6-.9 4.8-1.6v3.6zm22.2 2V.8h-9.3v29.5c0 2.3 0 4 .1 5.6.2 4.6 3.1 6.3 7.6 6.3 2.1 0 3.9-.1 5.7-.3v-6.4c-3 .3-3.9-.3-4.1-2.1zM172.1.8c-7.1 5.8-4.4 12.8-4.2 13.4.2.4.3.9.3 1.4 0 2.3-1.9 4.2-4.2 4.2-2 0-3.7-1.4-4.1-3.3-3.2 2.8-5.2 6.9-5.2 11.4 0 8.4 6.8 15.2 15.2 15.2 8.4 0 15.2-6.8 15.2-15.2 0-1.1-.1-2.2-.3-3.2-1.4-8.9-15.4-19.1-12.7-23.9zm3.1 31c-.9 3-4 4.8-7 3.9-3-.9-4.8-4-3.9-7 .1-.5.3-1 .5-1.4.6-1.1 1.6-1.8 3-2.7 3.9-2.4 5.1-4.8 4.6-6.2 2.4 3.5 3.8 9.4 2.8 13.4zM236.8 4c.4-.2.5-.4.5-.8 0-.6-.6-1-1.2-1h-1.6v3.2h1V4.3h.4c.3 0 .4.1.5.4.1.3.1.7.1.7h.9c-.1-.1-.1-.5-.2-.8 0-.4-.1-.6-.4-.6zm-.8-.4h-.5V3h.5c.3 0 .4.1.4.3 0 .2-.2.3-.4.3z" stroke="#4d84f2"/><path d="M235.9.8c-1.7 0-3 1.3-3 3s1.3 3 3 3 3-1.3 3-3-1.4-3-3-3zm0 5.6c-1.4 0-2.4-1.1-2.4-2.6s1-2.5 2.4-2.5 2.4 1.1 2.4 2.5c0 1.5-1.1 2.6-2.4 2.6z" stroke="#4d84f2"/></svg>
